<svg viewBox="0 0 308 124" fill="none" xmlns="http://www.w3.org/2000/svg">
    <g clip-path="url(#a)" fill="#000">
        <path
            d="M299.673 18.346C299.673 10.276 289.285 4 277.76 4c-20.454 0-28.717 10.46-28.095 20.984 1.288 21.54 43.527 16.78 43.527 36.377 0 9.947-6.311 17.804-20.046 17.995-3.177 0-6.847.468-13.457-3.052 2.146-1.708 3.927-3.224 3.82-8.432-.086-4.76-3.199-9.393-8.499-9.393-2.769 0-5.731 2.796-5.731 6.788 0 7.963 10.819 15.413 23.867 15.413C288.47 80.68 303 72.867 303 57.262c0-24.123-42.818-19.747-42.818-35.779 0-9.393 6.89-16.266 17.428-16.093 5.816.106 8.714 1.259 11.031 2.454a19.757 19.757 0 0 0-2.038 7.856c0 4.654 2.704 9.2 7.769 9.2 2.811 0 5.301-2.666 5.301-6.553v-.001Zm-90.851 22.628c10.946-.982 21.506-6.98 21.506-17.44 0-14.39-12.727-19.51-28.31-19.51H167.12v.725c5.194 2.178 9.831 1.708 9.615 13.236v49.054c.043 12.253-4.421 11.058-9.615 13.235V81h37.13c17.535 0 28.911-5.443 28.911-20.066.021-12.873-13.415-19.533-24.339-19.96Zm-8.027-.854h-13.157V5.453h13.157c11.161 0 18.78 6.553 18.78 17.547 0 11.016-7.62 17.12-18.78 17.12Zm21.312 20.302c0 11.762-7.018 18.53-19.466 18.53h-15.002V42.084h15.002c12.449 0 19.467 6.553 19.467 18.34l-.001-.003ZM158.794 42.98c0-23.483-18.5-38.767-38.311-38.767-19.788 0-38.31 15.284-38.31 38.767 0 23.482 18.5 37.998 38.31 37.998 19.811 0 38.311-14.516 38.311-37.998Zm-14.036 0c0 21.454-6.46 36.354-24.275 36.59-19.96.255-24.51-15.136-24.51-36.59 0-21.475 6.761-37.358 24.51-37.358 18.222.021 24.275 15.904 24.275 37.358ZM60.066 80.979l5.58-24.4h-.901c-5.43 11.506-14.337 22.949-25.84 22.949H24.91V17.406c0-7.151 2.36-10.161 7.297-12.317V4.022H6.043v.896c4.936 2.177 8.07 5.316 8.07 12.467V67.55c0 7.152-3.177 10.418-8.113 12.595v.833h54.066Zm4.422-66.153c0-5.978-2.811-9.8-7.748-9.8a7.855 7.855 0 0 0-5.436 2.35 7.77 7.77 0 0 0-2.226 5.464 9.037 9.037 0 0 0 .976 3.89 9.088 9.088 0 0 0 2.565 3.09c3.306 2.328 4.786 4.804 4.786 7.643 0 3.16-2.403 6.234-5.687 8.88a18.47 18.47 0 0 1-4.336 2.306v1.025c9.723-2.113 17.106-17.377 17.106-24.848ZM17.655 96.285v19.11H27V119H13.525V96.285h4.13ZM28.335 119l7.735-22.715h5.18L48.67 119h-4.34l-1.575-4.9H34.32l-1.61 4.9h-4.375Zm7.035-8.015h6.405l-3.185-9.765-3.22 9.765Zm34.472 8.505c-1.995 0-3.734-.473-5.215-1.418-1.47-.956-2.614-2.321-3.43-4.095-.817-1.773-1.225-3.902-1.225-6.387 0-2.567.42-4.719 1.26-6.458.851-1.75 2.018-3.068 3.5-3.955 1.493-.898 3.196-1.347 5.11-1.347 2.648 0 4.713.642 6.195 1.925 1.493 1.283 2.45 2.952 2.87 5.005l-4.41.805c-.362-1.19-.94-2.153-1.733-2.888-.793-.735-1.767-1.102-2.922-1.102-1.015 0-1.931.297-2.748.892-.816.584-1.47 1.47-1.96 2.66-.478 1.19-.717 2.678-.717 4.463 0 1.68.21 3.127.63 4.34.431 1.213 1.05 2.147 1.855 2.8.805.653 1.785.98 2.94.98 1.481 0 2.625-.391 3.43-1.173.816-.793 1.225-1.802 1.225-3.027h4.41c0 1.692-.368 3.132-1.103 4.322-.723 1.179-1.761 2.083-3.115 2.713-1.353.63-2.969.945-4.847.945Zm22.602 0c-2.018 0-3.803-.443-5.355-1.33-1.54-.887-2.747-2.211-3.622-3.973-.875-1.761-1.313-3.949-1.313-6.562 0-2.66.438-4.859 1.313-6.598.875-1.75 2.082-3.05 3.622-3.902 1.552-.863 3.337-1.295 5.355-1.295 2.03 0 3.821.443 5.373 1.33 1.551.875 2.765 2.188 3.64 3.937.875 1.75 1.312 3.926 1.312 6.528 0 2.648-.437 4.853-1.312 6.615-.875 1.762-2.089 3.08-3.64 3.955-1.552.863-3.343 1.295-5.373 1.295Zm0-3.745c1.855 0 3.325-.7 4.41-2.1 1.097-1.4 1.645-3.418 1.645-6.055 0-2.543-.548-4.521-1.645-5.933-1.085-1.411-2.555-2.117-4.41-2.117-1.82 0-3.278.712-4.375 2.135-1.096 1.412-1.645 3.395-1.645 5.95 0 2.625.549 4.637 1.645 6.037 1.097 1.389 2.555 2.083 4.375 2.083Zm15.142-19.46h4.515l10.325 16.205h-.315V96.285h4.13V119h-4.2l-10.99-17.185h.665V119h-4.13V96.285Zm22.463 21.77v-4.13c.933.537 1.843.927 2.73 1.172.898.245 1.726.368 2.485.368 1.003 0 1.732-.292 2.187-.875.455-.583.683-1.47.683-2.66V96.285h4.165v15.645c0 1.832-.286 3.302-.858 4.41-.571 1.108-1.359 1.913-2.362 2.415-1.004.49-2.159.735-3.465.735-1.027 0-2.007-.14-2.94-.42a15.279 15.279 0 0 1-2.625-1.015Zm17.862-21.77h4.13v14.14c0 1.867.473 3.214 1.418 4.042.957.829 2.176 1.243 3.657 1.243 1.494 0 2.713-.414 3.658-1.243.945-.828 1.417-2.175 1.417-4.042v-14.14h4.13v14.14c0 1.913-.367 3.547-1.102 4.9a7.385 7.385 0 0 1-3.168 3.098c-1.365.711-3.01 1.067-4.935 1.067-1.925 0-3.575-.356-4.952-1.067a7.408 7.408 0 0 1-3.15-3.098c-.735-1.353-1.103-2.987-1.103-4.9v-14.14Zm32.81 23.205c-1.855 0-3.529-.49-5.022-1.47-1.493-.98-2.683-2.345-3.57-4.095-.875-1.762-1.313-3.815-1.313-6.16 0-1.855.269-3.518.805-4.988.549-1.47 1.307-2.724 2.275-3.762a9.61 9.61 0 0 1 3.413-2.362c1.307-.549 2.724-.823 4.252-.823 2.124 0 3.903.46 5.338 1.383 1.447.921 2.572 2.374 3.377 4.357l-4.235.98c-.595-.968-1.283-1.703-2.065-2.205-.77-.513-1.645-.77-2.625-.77-1.12 0-2.14.332-3.062.997-.922.654-1.657 1.593-2.205 2.818s-.823 2.683-.823 4.375c0 1.587.24 2.975.718 4.165.49 1.19 1.172 2.117 2.047 2.782.875.665 1.89.998 3.045.998.98 0 1.855-.216 2.625-.648a4.693 4.693 0 0 0 1.838-1.89c.455-.816.682-1.802.682-2.957h.91c0 1.89-.227 3.529-.682 4.917-.443 1.389-1.138 2.462-2.083 3.22-.945.759-2.158 1.138-3.64 1.138Zm6.09-.49-.595-5.005v-3.92l-5.11-.105v-2.625h9.065V119h-3.36Zm6.817 0 7.735-22.715h5.18l7.42 22.715h-4.34l-1.575-4.9h-8.435l-1.61 4.9h-4.375Zm7.035-8.015h6.405l-3.185-9.765-3.22 9.765ZM218.022 119V96.285h4.13V119h-4.13Zm18.574.49c-1.575 0-3.027-.274-4.357-.823a7.502 7.502 0 0 1-3.22-2.502c-.817-1.12-1.255-2.543-1.313-4.27h4.06c0 .875.216 1.592.648 2.152.431.56 1.009.98 1.732 1.26.735.269 1.54.403 2.415.403.84 0 1.587-.111 2.24-.333.665-.221 1.184-.536 1.558-.945.385-.42.577-.915.577-1.487 0-.758-.233-1.353-.7-1.785-.455-.432-1.19-.828-2.205-1.19l-4.48-1.785c-1.75-.688-3.092-1.488-4.025-2.398-.933-.91-1.4-2.164-1.4-3.762 0-1.843.729-3.337 2.188-4.48 1.458-1.143 3.494-1.715 6.107-1.715 2.543 0 4.509.595 5.898 1.785 1.388 1.178 2.175 2.823 2.362 4.935h-4.06c-.152-.898-.56-1.616-1.225-2.153-.665-.548-1.657-.822-2.975-.822-1.167 0-2.088.245-2.765.735-.677.478-1.015 1.085-1.015 1.82 0 .63.21 1.132.63 1.505.432.362 1.097.712 1.995 1.05l4.97 1.925c1.68.653 2.969 1.476 3.868 2.467.898.992 1.347 2.235 1.347 3.728 0 1.365-.344 2.549-1.032 3.552-.689.992-1.692 1.762-3.01 2.31-1.319.549-2.923.823-4.813.823Zm23.089 0c-2.018 0-3.803-.443-5.355-1.33-1.54-.887-2.747-2.211-3.622-3.973-.875-1.761-1.313-3.949-1.313-6.562 0-2.66.438-4.859 1.313-6.598.875-1.75 2.082-3.05 3.622-3.902 1.552-.863 3.337-1.295 5.355-1.295 2.03 0 3.821.443 5.373 1.33 1.552.875 2.765 2.188 3.64 3.937.875 1.75 1.312 3.926 1.312 6.528 0 2.648-.437 4.853-1.312 6.615-.875 1.762-2.088 3.08-3.64 3.955-1.552.863-3.343 1.295-5.373 1.295Zm0-3.745c1.855 0 3.325-.7 4.41-2.1 1.097-1.4 1.645-3.418 1.645-6.055 0-2.543-.548-4.521-1.645-5.933-1.085-1.411-2.555-2.117-4.41-2.117-1.82 0-3.278.712-4.375 2.135-1.096 1.412-1.645 3.395-1.645 5.95 0 2.625.549 4.637 1.645 6.037 1.097 1.389 2.555 2.083 4.375 2.083Zm15.142-19.46h4.515l10.325 16.205h-.315V96.285h4.13V119h-4.2l-10.99-17.185h.665V119h-4.13V96.285Z" />
    </g>
    <defs>
        <clipPath id="a">
            <path fill="#fff" d="M0 0h308v124H0z" />
        </clipPath>
    </defs>
</svg>